# xmcd
#
# Track frame offsets:
#	150
#	12887
#	26055
#	39198
#	52052
#	65028
#	78236
#	90885
#	103101
#	116501
#	128448
#	142422
#	154685
#	167871
#	181842
#	196227
#	210410
#	225015
#	239159
#	253119
#	267428
#	281830
#	295102
#	308436
#	320810
#
# Disc length: 4448 seconds
#
# Revision: 1
# Processed by: cddbd v1.5.1PL0 Copyright (c) Steve Scherf et al.
# Submitted via: EasyCDDAExtractor 7.5.2.1
#
DISCID=5d115e19
DTITLE=Various Artist - Masters of the Memphis Blues (1927-29) - Disc B (Stok
DTITLE=es and Sane\\Banjo Joe)
DYEAR=2004
DGENRE=Blues
TTITLE0=The Beale Street Sheiks (Stokes and Sane) - You Shall
TTITLE1=The Beale Street Sheiks (Stokes and Sane) - It's A Good Thing
TTITLE2=The Beale Street Sheiks (Stokes and Sane) - Sweet To Mama
TTITLE3=The Beale Street Sheiks (Stokes and Sane) - Half Cup Of Tea
TTITLE4=The Beale Street Sheiks (Stokes and Sane) - Beale Town Bound
TTITLE5=The Beale Street Sheiks (Stokes and Sane) - Last Go Round
TTITLE6=The Beale Street Sheiks (Stokes and Sane) - Jazzin' The Blues
TTITLE7=The Beale Street Sheiks (Stokes and Sane) - You Shall
TTITLE8=The Beale Street Sheiks (Stokes and Sane) - It's A Good Thing
TTITLE9=The Beale Street Sheiks (Stokes and Sane) - Mr Crump Don't Like It
TTITLE10=The Beale Street Sheiks (Stokes and Sane) - Chicken You Can Roost Behin
TTITLE10=d The Moon
TTITLE11=The Beale Street Sheiks (Stokes and Sane) - Blues In 'D'
TTITLE12=The Beale Street Sheiks (Stokes and Sane) - Ain't Goin' To Do Like I Us
TTITLE12=ed To Do
TTITLE13=The Beale Street Sheiks (Stokes and Sane) - Hunting Blues
TTITLE14=The Beale Street Sheiks (Stokes and Sane) - Rockin' On The Hills Blues
TTITLE15=The Beale Street Sheiks (Stokes and Sane) - Fillin' In Blues, Part 1
TTITLE16=The Beale Street Sheiks (Stokes and Sane) - Fillin' In Blues, Part 2
TTITLE17=The Beale Street Sheiks (Stokes and Sane) - Wasn't That Doggin' Me
TTITLE18=The Beale Street Sheiks (Stokes and Sane) - Jumpin' On The Hill
TTITLE19=Banjo Joe (Gus Cannon) - Jonestown Blues
TTITLE20=Banjo Joe (Gus Cannon) - Poor Boy, Long Ways From Home
TTITLE21=Banjo Joe (Gus Cannon) - Madison Street Rag
TTITLE22=Banjo Joe (Gus Cannon) - Jazz Gypsy Blues
TTITLE23=Banjo Joe (Gus Cannon) - Can You Blame The Colored Man
TTITLE24=Banjo Joe (Gus Cannon) - My Money Never Runs Out
EXTD=YEAR: 2004
EXTT0=
EXTT1=
EXTT2=
EXTT3=
EXTT4=
EXTT5=
EXTT6=
EXTT7=
EXTT8=
EXTT9=
EXTT10=
EXTT11=
EXTT12=
EXTT13=
EXTT14=
EXTT15=
EXTT16=
EXTT17=
EXTT18=
EXTT19=
EXTT20=
EXTT21=
EXTT22=
EXTT23=
EXTT24=
PLAYORDER=
